# xmcd CD database file
#
# Track frame offsets:
#	150
#	35602
#	85805
#	120305
#	145992
#
# Disc length: 2722 seconds
#
# Revision: 1
# Processed by: cddbd v1.5PL3 Copyright (c) Steve Scherf et al.
# Submitted via: CDex 1.51
#
DISCID=3a0aa005
DTITLE=森山威男 - Yama
DYEAR=2002
DGENRE=Jazz
TTITLE0=A Fox In The Woods
TTITLE1=Sound River
TTITLE2=Hey, Open Up!
TTITLE3=Tribute To Trane
TTITLE4=Sunrise
EXTD=YEAR: 2002
EXTT0=
EXTT1=
EXTT2=
EXTT3=
EXTT4=
PLAYORDER=
